<svg width="158" height="70" viewBox="0 0 158 70" fill="none" xmlns="http://www.w3.org/2000/svg">
<g clip-path="url(#clip0_18_11)">
<path d="M0 39.0601H21.96V61.02H0V39.0601Z" fill="white"/>
<path d="M72.7529 39.0601H94.7129L72.7529 61.02V39.0601Z" fill="white"/>
<path d="M72.7529 39.0601H94.7129L72.7529 61.02V39.0601Z" fill="white"/>
<path d="M10.5112 27.618C8.32133 27.618 6.44094 27.1372 4.86998 26.1757C3.30854 25.2142 2.10413 23.8861 1.25677 22.1915C0.418923 20.4874 0 18.5262 0 16.308C0 14.0803 0.428444 12.1144 1.28533 10.4103C2.14222 8.69667 3.35138 7.36385 4.91282 6.41183C6.48378 5.4503 8.34037 4.96953 10.4826 4.96953C12.263 4.96953 13.8387 5.29797 15.2098 5.95486C16.5903 6.60224 17.69 7.52093 18.5088 8.71095C19.3276 9.89145 19.7941 11.2719 19.9084 12.8522H14.967C14.767 11.7955 14.291 10.9149 13.5388 10.2104C12.7962 9.49636 11.8012 9.13936 10.554 9.13936C9.49717 9.13936 8.56887 9.42496 7.76911 9.99617C6.96935 10.5579 6.34573 11.3671 5.89824 12.4238C5.46028 13.4806 5.24129 14.7467 5.24129 16.2224C5.24129 17.717 5.46028 19.0023 5.89824 20.078C6.33621 21.1443 6.95031 21.9678 7.74055 22.5485C8.54031 23.1197 9.47813 23.4053 10.554 23.4053C11.3157 23.4053 11.9964 23.2625 12.5962 22.9769C13.2056 22.6818 13.715 22.2581 14.1244 21.706C14.5338 21.1538 14.8146 20.4826 14.967 19.6925H19.9084C19.7846 21.2443 19.3276 22.6199 18.5373 23.8195C17.7471 25.0095 16.6712 25.9425 15.3097 26.6184C13.9482 27.2848 12.3487 27.618 10.5112 27.618Z" fill="white"/>
<path d="M23.3492 27.1896V5.25513H28.362V8.91088H28.5905C28.9904 7.64469 29.6759 6.66888 30.647 5.98343C31.6277 5.28845 32.7464 4.94097 34.0031 4.94097C34.2888 4.94097 34.6077 4.95525 34.96 4.98381C35.3218 5.00285 35.6217 5.03617 35.8597 5.08377V9.83909C35.6408 9.76293 35.2932 9.69629 34.8172 9.63917C34.3507 9.57253 33.8984 9.53921 33.4605 9.53921C32.5179 9.53921 31.6705 9.74389 30.9184 10.1533C30.1757 10.5531 29.5902 11.11 29.1617 11.824C28.7333 12.5381 28.5191 13.3616 28.5191 14.2945V27.1896H23.3492Z" fill="white"/>
<path d="M47.2982 27.618C45.0988 27.618 43.1994 27.161 41.5999 26.2471C40.0099 25.3236 38.7864 24.0194 37.9296 22.3343C37.0727 20.6397 36.6442 18.6452 36.6442 16.3509C36.6442 14.0946 37.0727 12.1144 37.9296 10.4103C38.796 8.69667 40.0051 7.36385 41.557 6.41183C43.109 5.4503 44.9322 4.96953 47.0268 4.96953C48.3788 4.96953 49.6546 5.18849 50.8543 5.62642C52.0634 6.05483 53.1298 6.72124 54.0533 7.62565C54.9864 8.53007 55.7195 9.68201 56.2527 11.0815C56.7858 12.4714 57.0524 14.1279 57.0524 16.051V17.6361H39.0721V14.1517H52.0968C52.0872 13.1616 51.873 12.281 51.4541 11.5099C51.0352 10.7292 50.4496 10.1152 49.6975 9.66773C48.9548 9.22028 48.0884 8.99656 47.0982 8.99656C46.0414 8.99656 45.1131 9.2536 44.3134 9.76769C43.5136 10.2723 42.89 10.9387 42.4425 11.7669C42.0045 12.5857 41.7808 13.4853 41.7713 14.4659V17.5076C41.7713 18.7833 42.0045 19.8781 42.4711 20.792C42.9376 21.6965 43.5898 22.3914 44.4276 22.877C45.2655 23.353 46.2461 23.591 47.3696 23.591C48.1217 23.591 48.8025 23.4863 49.4118 23.2768C50.0212 23.0578 50.5496 22.7389 50.9971 22.32C51.4446 21.9011 51.7826 21.3823 52.0111 20.7635L56.8382 21.3061C56.5335 22.5818 55.9527 23.6957 55.0959 24.6477C54.2485 25.5902 53.1631 26.3233 51.8397 26.8469C50.5163 27.361 49.0024 27.618 47.2982 27.618Z" fill="white"/>
<path d="M66.9342 27.6323C65.5441 27.6323 64.2921 27.3848 63.1782 26.8897C62.0737 26.3851 61.1978 25.6426 60.5504 24.662C59.9125 23.6814 59.5935 22.4724 59.5935 21.0348C59.5935 19.7972 59.822 18.7738 60.279 17.9646C60.736 17.1553 61.3597 16.508 62.1499 16.0224C62.9401 15.5369 63.8304 15.1704 64.8205 14.9229C65.8202 14.6658 66.8533 14.4802 67.9196 14.3659C69.2049 14.2326 70.2475 14.1136 71.0473 14.0089C71.847 13.8947 72.4278 13.7233 72.7896 13.4948C73.1609 13.2568 73.3466 12.8903 73.3466 12.3953V12.3096C73.3466 11.2338 73.0276 10.4008 72.3897 9.81053C71.7518 9.22028 70.833 8.92516 69.6334 8.92516C68.3671 8.92516 67.3626 9.20124 66.62 9.75341C65.8869 10.3056 65.3918 10.9577 65.1347 11.7098L60.3076 11.0244C60.6884 9.69153 61.3168 8.57767 62.1927 7.68277C63.0687 6.77836 64.1398 6.10243 65.4061 5.65498C66.6724 5.19801 68.0719 4.96953 69.6048 4.96953C70.6616 4.96953 71.7137 5.09329 72.761 5.34081C73.8083 5.58834 74.7652 5.9977 75.6316 6.56891C76.498 7.1306 77.193 7.89698 77.7167 8.86803C78.2499 9.83909 78.5165 11.0529 78.5165 12.5095V27.1896H73.5465V24.1765H73.3751C73.0609 24.7858 72.6182 25.357 72.047 25.8901C71.4852 26.4137 70.7759 26.8374 69.919 27.161C69.0716 27.4752 68.0767 27.6323 66.9342 27.6323ZM68.2767 23.8337C69.3144 23.8337 70.2142 23.6291 70.9758 23.2197C71.7375 22.8008 72.3231 22.2486 72.7325 21.5632C73.1514 20.8777 73.3608 20.1304 73.3608 19.3212V16.7365C73.199 16.8697 72.9229 16.9935 72.5325 17.1077C72.1517 17.222 71.7232 17.3219 71.2472 17.4076C70.7711 17.4933 70.2999 17.5695 69.8333 17.6361C69.3668 17.7027 68.9622 17.7599 68.6194 17.8075C67.8482 17.9122 67.1579 18.0836 66.5486 18.3216C65.9392 18.5596 65.4584 18.8928 65.1062 19.3212C64.7539 19.7401 64.5778 20.2827 64.5778 20.9491C64.5778 21.9011 64.9253 22.6199 65.6203 23.1054C66.3153 23.591 67.2008 23.8337 68.2767 23.8337Z" fill="white"/>
<path d="M93.8644 5.25513V9.2536H81.2539V5.25513H93.8644ZM84.3673 0H89.5372V20.5921C89.5372 21.2871 89.6419 21.8202 89.8514 22.1915C90.0703 22.5533 90.356 22.8008 90.7082 22.9341C91.0605 23.0674 91.4509 23.134 91.8793 23.134C92.203 23.134 92.4982 23.1102 92.7648 23.0626C93.0409 23.015 93.2503 22.9722 93.3932 22.9341L94.2643 26.9754C93.9882 27.0706 93.5931 27.1753 93.079 27.2896C92.5744 27.4038 91.9555 27.4704 91.2224 27.4895C89.9275 27.5276 88.7612 27.3324 87.7234 26.904C86.6856 26.4661 85.8621 25.7901 85.2527 24.8762C84.6529 23.9623 84.3578 22.8198 84.3673 21.4489V0Z" fill="white"/>
<path d="M121.593 27.1896V5.25513H126.606V8.91088H126.835C127.234 7.64469 127.92 6.66888 128.891 5.98343C129.872 5.28845 130.99 4.94097 132.247 4.94097C132.533 4.94097 132.852 4.95525 133.204 4.98381C133.566 5.00285 133.866 5.03617 134.104 5.08377V9.83909C133.885 9.76293 133.537 9.69629 133.061 9.63917C132.595 9.57253 132.142 9.53921 131.704 9.53921C130.762 9.53921 129.915 9.74389 129.162 10.1533C128.42 10.5531 127.834 11.11 127.406 11.824C126.977 12.5381 126.763 13.3616 126.763 14.2945V27.1896H121.593Z" fill="white"/>
<path d="M154.072 11.0529L149.359 11.567C149.226 11.091 148.992 10.6435 148.659 10.2247C148.335 9.80577 147.897 9.46781 147.345 9.21076C146.793 8.95372 146.117 8.82519 145.317 8.82519C144.241 8.82519 143.337 9.05844 142.604 9.52493C141.88 9.99142 141.523 10.5959 141.533 11.3385C141.523 11.9764 141.756 12.4952 142.233 12.8951C142.718 13.2949 143.518 13.6234 144.632 13.8804L148.374 14.6801C150.449 15.1275 151.992 15.8368 153.001 16.8079C154.019 17.7789 154.534 19.0499 154.543 20.6207C154.534 22.0011 154.129 23.2197 153.329 24.2764C152.539 25.3236 151.439 26.1424 150.03 26.7326C148.621 27.3229 147.002 27.618 145.174 27.618C142.49 27.618 140.328 27.0563 138.691 25.9329C137.053 24.8 136.077 23.2244 135.763 21.2062L140.804 20.7206C141.033 21.7107 141.518 22.4581 142.261 22.9626C143.004 23.4672 143.97 23.7195 145.16 23.7195C146.388 23.7195 147.374 23.4672 148.116 22.9626C148.869 22.4581 149.245 21.8345 149.245 21.0919C149.245 20.4636 149.002 19.9447 148.516 19.5354C148.04 19.126 147.298 18.8118 146.288 18.5929L142.547 17.8075C140.443 17.3695 138.886 16.6317 137.877 15.594C136.867 14.5468 136.368 13.2235 136.377 11.6241C136.368 10.2723 136.734 9.10128 137.477 8.11118C138.229 7.11156 139.271 6.34043 140.604 5.79778C141.947 5.24561 143.494 4.96953 145.246 4.96953C147.817 4.96953 149.84 5.51694 151.316 6.61176C152.801 7.70657 153.72 9.18696 154.072 11.0529Z" fill="white"/>
<path d="M35.9784 69.6823C34.1218 69.6823 32.527 69.43 31.1941 68.9254C29.8612 68.4304 28.7901 67.764 27.9808 66.9262C27.1715 66.0884 26.6098 65.1602 26.2956 64.1415L30.9513 63.0134C31.1608 63.4418 31.4654 63.8654 31.8653 64.2843C32.2652 64.7127 32.8031 65.065 33.4791 65.3411C34.1646 65.6267 35.0263 65.7695 36.0641 65.7695C37.5303 65.7695 38.7442 65.4125 39.7058 64.6985C40.6675 63.994 41.1483 62.8325 41.1483 61.2141V57.0585H40.8912C40.6246 57.5917 40.2343 58.1391 39.7201 58.7008C39.2155 59.2624 38.5443 59.7337 37.7064 60.1145C36.8781 60.4953 35.8356 60.6857 34.5788 60.6857C32.8936 60.6857 31.3655 60.2906 29.9945 59.5005C28.633 58.7008 27.5476 57.5107 26.7383 55.9304C25.9385 54.3405 25.5386 52.3508 25.5386 49.9612C25.5386 47.5526 25.9385 45.5201 26.7383 43.8636C27.5476 42.1976 28.6377 40.9361 30.0087 40.0793C31.3798 39.213 32.9079 38.7798 34.5931 38.7798C35.8784 38.7798 36.9352 38.9988 37.7636 39.4367C38.6014 39.8651 39.2679 40.384 39.763 40.9933C40.2581 41.593 40.6341 42.1595 40.8912 42.6926H41.1768V39.0654H46.2753V61.3569C46.2753 63.2324 45.8278 64.7842 44.9329 66.0123C44.0379 67.2404 42.8144 68.159 41.2625 68.7683C39.7106 69.3776 37.9492 69.6823 35.9784 69.6823ZM36.0212 56.6301C37.1161 56.6301 38.0492 56.3636 38.8204 55.8304C39.5916 55.2973 40.1771 54.5309 40.577 53.5313C40.9769 52.5317 41.1768 51.3321 41.1768 49.9327C41.1768 48.5523 40.9769 47.3432 40.577 46.3055C40.1867 45.2678 39.6059 44.4633 38.8347 43.8921C38.073 43.3114 37.1352 43.021 36.0212 43.021C34.8692 43.021 33.9076 43.3209 33.1364 43.9207C32.3652 44.5205 31.7844 45.344 31.394 46.3912C31.0037 47.4289 30.8085 48.6094 30.8085 49.9327C30.8085 51.275 31.0037 52.4508 31.394 53.4599C31.7939 54.4595 32.3795 55.2402 33.1507 55.8019C33.9314 56.354 34.8882 56.6301 36.0212 56.6301Z" fill="white"/>
<path d="M57.0818 61.4426C55.6918 61.4426 54.4397 61.195 53.3258 60.7C52.2214 60.1954 51.3454 59.4529 50.698 58.4723C50.0601 57.4917 49.7411 56.2826 49.7411 54.8451C49.7411 53.6075 49.9696 52.5841 50.4266 51.7748C50.8837 50.9656 51.5073 50.3183 52.2975 49.8327C53.0878 49.3472 53.978 48.9807 54.9682 48.7331C55.9679 48.4761 57.0009 48.2905 58.0672 48.1762C59.3526 48.0429 60.3951 47.9239 61.1949 47.8192C61.9946 47.705 62.5754 47.5336 62.9372 47.3051C63.3085 47.0671 63.4942 46.7006 63.4942 46.2055V46.1199C63.4942 45.0441 63.1752 44.2111 62.5373 43.6208C61.8994 43.0306 60.9806 42.7354 59.781 42.7354C58.5147 42.7354 57.5103 43.0115 56.7676 43.5637C56.0345 44.1159 55.5394 44.768 55.2823 45.5201L50.4552 44.8346C50.8361 43.5018 51.4644 42.388 52.3404 41.4931C53.2163 40.5886 54.2874 39.9127 55.5537 39.4653C56.82 39.0083 58.2196 38.7798 59.7524 38.7798C60.8093 38.7798 61.8613 38.9036 62.9086 39.1511C63.956 39.3986 64.9128 39.808 65.7792 40.3792C66.6456 40.9409 67.3407 41.7073 67.8643 42.6783C68.3975 43.6494 68.6641 44.8632 68.6641 46.3198V60.9999H63.6941V57.9868H63.5228C63.2086 58.596 62.7658 59.1672 62.1946 59.7004C61.6328 60.224 60.9235 60.6476 60.0666 60.9713C59.2193 61.2855 58.2243 61.4426 57.0818 61.4426ZM58.4243 57.644C59.4621 57.644 60.3618 57.4393 61.1235 57.03C61.8851 56.6111 62.4707 56.0589 62.8801 55.3735C63.299 54.688 63.5085 53.9407 63.5085 53.1315V50.5467C63.3466 50.68 63.0705 50.8038 62.6801 50.918C62.2993 51.0323 61.8709 51.1322 61.3948 51.2179C60.9188 51.3036 60.4475 51.3798 59.9809 51.4464C59.5144 51.513 59.1098 51.5702 58.767 51.6178C57.9958 51.7225 57.3056 51.8938 56.6962 52.1318C56.0869 52.3698 55.6061 52.7031 55.2538 53.1315C54.9015 53.5503 54.7254 54.093 54.7254 54.7594C54.7254 55.7114 55.0729 56.4302 55.7679 56.9157C56.4629 57.4013 57.3484 57.644 58.4243 57.644Z" fill="white"/>
<path d="M109.232 39.0654V43.0639H96.6218V39.0654H109.232ZM99.7352 33.8103H104.905V54.4024C104.905 55.0974 105.01 55.6305 105.219 56.0018C105.438 56.3636 105.724 56.6111 106.076 56.7444C106.428 56.8776 106.819 56.9443 107.247 56.9443C107.571 56.9443 107.866 56.9205 108.133 56.8729C108.409 56.8253 108.618 56.7824 108.761 56.7444L109.632 60.7857C109.356 60.8809 108.961 60.9856 108.447 61.0998C107.942 61.2141 107.323 61.2807 106.59 61.2998C105.295 61.3378 104.129 61.1427 103.091 60.7143C102.054 60.2763 101.23 59.6004 100.621 58.6865C100.021 57.7725 99.7257 56.6301 99.7352 55.2592V33.8103Z" fill="white"/>
<path d="M122.463 61.4283C120.264 61.4283 118.364 60.9713 116.765 60.0574C115.175 59.1339 113.951 57.8297 113.094 56.1446C112.238 54.45 111.809 52.4555 111.809 50.1612C111.809 47.9049 112.238 45.9247 113.094 44.2206C113.961 42.507 115.17 41.1741 116.722 40.2221C118.274 39.2606 120.097 38.7798 122.192 38.7798C123.544 38.7798 124.82 38.9988 126.019 39.4367C127.228 39.8651 128.295 40.5315 129.218 41.4359C130.151 42.3404 130.884 43.4923 131.418 44.8918C131.951 46.2817 132.217 47.9382 132.217 49.8613V51.4464H114.237V47.962H127.262C127.252 46.9719 127.038 46.0913 126.619 45.3202C126.2 44.5395 125.615 43.9255 124.862 43.478C124.12 43.0306 123.253 42.8068 122.263 42.8068C121.206 42.8068 120.278 43.0639 119.478 43.578C118.679 44.0825 118.055 44.749 117.607 45.5772C117.169 46.3959 116.946 47.2956 116.936 48.2762V51.3179C116.936 52.5936 117.169 53.6884 117.636 54.6023C118.103 55.5067 118.755 56.2017 119.593 56.6872C120.43 57.1633 121.411 57.4013 122.535 57.4013C123.287 57.4013 123.967 57.2965 124.577 57.0871C125.186 56.8681 125.715 56.5492 126.162 56.1303C126.61 55.7114 126.948 55.1926 127.176 54.5738L132.003 55.1164C131.698 56.3921 131.118 57.506 130.261 58.458C129.413 59.4005 128.328 60.1335 127.005 60.6572C125.681 61.1712 124.167 61.4283 122.463 61.4283Z" fill="white"/>
<path d="M119.031 16.2969C119.031 22.5463 113.965 27.6124 107.716 27.6124C101.467 27.6124 96.4004 22.5463 96.4004 16.2969C96.4004 10.0476 101.467 4.98145 107.716 4.98145C113.965 4.98145 119.031 10.0476 119.031 16.2969Z" fill="white"/>
<mask id="mask0_18_11" style="mask-type:alpha" maskUnits="userSpaceOnUse" x="136" y="39" width="22" height="23">
<path d="M136.04 39.0601H158V61.02H136.04V39.0601Z" fill="#C4C4C4"/>
</mask>
<g mask="url(#mask0_18_11)">
<path d="M158 61.02C158 73.1482 148.168 82.98 136.04 82.98C123.912 82.98 114.08 73.1482 114.08 61.02C114.08 48.8919 123.912 39.0601 136.04 39.0601C148.168 39.0601 158 48.8919 158 61.02Z" fill="white"/>
</g>
</g>
<defs>
<clipPath id="clip0_18_11">
<rect width="158" height="70" fill="white"/>
</clipPath>
</defs>
</svg>
