<svg width="1102" height="125" viewBox="0 0 1102 125" fill="none" xmlns="http://www.w3.org/2000/svg">
<path d="M36.5403 96.0096C28.9278 96.0096 22.3909 94.3382 16.9297 90.9956C11.5016 87.653 7.31469 83.0362 4.36895 77.1452C1.45632 71.2212 0 64.4035 0 56.6923C0 48.948 1.48941 42.1138 4.46825 36.1897C7.44708 30.2326 11.6505 25.5992 17.0786 22.2897C22.5398 18.9471 28.994 17.2758 36.441 17.2758C42.6304 17.2758 48.1081 18.4175 52.8743 20.7011C57.6735 22.9516 61.4963 26.1453 64.3428 30.2822C67.1892 34.386 68.811 39.1849 69.2082 44.6787H52.0303C51.3352 41.0051 49.6803 37.9438 47.0655 35.4947C44.4839 33.0126 41.0251 31.7715 36.6893 31.7715C33.0154 31.7715 29.7883 32.7644 27.0081 34.7501C24.2278 36.7027 22.0599 39.5158 20.5043 43.1894C18.9818 46.863 18.2205 51.2647 18.2205 56.3944C18.2205 61.5904 18.9818 66.0583 20.5043 69.7981C22.0268 73.5047 24.1616 76.3675 26.9088 78.3863C29.689 80.372 32.9492 81.3649 36.6893 81.3649C39.3371 81.3649 41.7036 80.8684 43.7888 79.8756C45.9071 78.8496 47.6779 77.3769 49.1011 75.4573C50.5243 73.5378 51.5007 71.2046 52.0303 68.4577H69.2082C68.7779 73.8522 67.1892 78.6345 64.442 82.8045C61.6949 86.9414 57.9548 90.1848 53.2218 92.5346C48.4888 94.8512 42.9283 96.0096 36.5403 96.0096Z" fill="white"/>
<path d="M81.1697 94.5203V18.2686H98.5958V30.9772H99.3902C100.78 26.5755 103.163 23.1833 106.539 20.8004C109.948 18.3845 113.838 17.1765 118.206 17.1765C119.199 17.1765 120.308 17.2261 121.533 17.3254C122.791 17.3916 123.833 17.5074 124.661 17.6729V34.204C123.899 33.9393 122.691 33.7076 121.036 33.509C119.415 33.2774 117.842 33.1615 116.32 33.1615C113.043 33.1615 110.097 33.8731 107.483 35.2962C104.901 36.6862 102.865 38.6222 101.376 41.1044C99.8867 43.5865 99.142 46.4493 99.142 49.6926V94.5203H81.1697Z" fill="white"/>
<path d="M164.425 96.0096C156.779 96.0096 150.176 94.421 144.615 91.2438C139.088 88.0336 134.835 83.4995 131.856 77.6416C128.877 71.7507 127.388 64.8172 127.388 56.8412C127.388 48.9976 128.877 42.1138 131.856 36.1897C134.868 30.2326 139.071 25.5992 144.466 22.2897C149.861 18.9471 156.2 17.2758 163.481 17.2758C168.181 17.2758 172.616 18.037 176.787 19.5593C180.99 21.0486 184.697 23.3653 187.908 26.5094C191.151 29.6534 193.7 33.658 195.553 38.523C197.407 43.3549 198.334 49.1135 198.334 55.7987V61.3091H135.828V49.1962H181.106C181.073 45.7543 180.328 42.693 178.872 40.0123C177.416 37.2984 175.38 35.1638 172.765 33.6083C170.184 32.0528 167.172 31.2751 163.729 31.2751C160.056 31.2751 156.829 32.1687 154.048 33.9558C151.268 35.7099 149.1 38.0265 147.545 40.9058C146.022 43.752 145.244 46.8795 145.211 50.2884V60.8623C145.211 65.2971 146.022 69.1031 147.644 72.2802C149.266 75.4243 151.533 77.8402 154.445 79.5281C157.358 81.1828 160.767 82.0102 164.673 82.0102C167.288 82.0102 169.654 81.6462 171.772 80.9181C173.891 80.1569 175.728 79.0482 177.283 77.592C178.839 76.1358 180.014 74.3321 180.808 72.1809L197.589 74.0673C196.53 78.5021 194.511 82.3743 191.532 85.6838C188.586 88.9602 184.813 91.5086 180.212 93.3288C175.612 95.116 170.349 96.0096 164.425 96.0096Z" fill="white"/>
<path d="M232.686 96.0592C227.854 96.0592 223.501 95.1987 219.629 93.4778C215.789 91.7237 212.744 89.1423 210.494 85.7334C208.276 82.3246 207.167 78.1215 207.167 73.1241C207.167 68.8217 207.962 65.264 209.55 62.4509C211.139 59.6378 213.307 57.3873 216.054 55.6994C218.801 54.0116 221.896 52.7374 225.338 51.8769C228.813 50.9834 232.405 50.338 236.112 49.9409C240.58 49.4775 244.204 49.0638 246.984 48.6998C249.765 48.3026 251.784 47.7069 253.041 46.9126C254.332 46.0852 254.978 44.8111 254.978 43.0901V42.7923C254.978 39.0525 253.869 36.1566 251.651 34.1047C249.434 32.0528 246.24 31.0269 242.069 31.0269C237.667 31.0269 234.175 31.9866 231.594 33.9062C229.045 35.8257 227.324 38.0927 226.43 40.7073L209.65 38.3244C210.974 33.691 213.158 29.8189 216.203 26.7079C219.248 23.5639 222.972 21.2141 227.374 19.6586C231.776 18.07 236.641 17.2758 241.97 17.2758C245.644 17.2758 249.301 17.706 252.942 18.5665C256.583 19.427 259.909 20.8501 262.921 22.8358C265.933 24.7884 268.349 27.4526 270.17 30.8283C272.023 34.204 272.95 38.4237 272.95 43.4873V94.5203H255.673V84.0456H255.077C253.985 86.1637 252.446 88.1494 250.46 90.0027C248.507 91.823 246.041 93.2957 243.062 94.421C240.116 95.5131 236.658 96.0592 232.686 96.0592ZM237.353 82.8542C240.961 82.8542 244.088 82.1426 246.736 80.7195C249.384 79.2633 251.42 77.3438 252.843 74.9609C254.299 72.5781 255.027 69.9801 255.027 67.167V58.1816C254.465 58.6449 253.505 59.0752 252.148 59.4723C250.824 59.8694 249.334 60.2169 247.679 60.5148C246.025 60.8127 244.386 61.0774 242.764 61.3091C241.143 61.5408 239.736 61.7393 238.544 61.9048C235.863 62.2689 233.464 62.8646 231.345 63.692C229.227 64.5193 227.556 65.6777 226.331 67.167C225.106 68.6232 224.494 70.5096 224.494 72.8263C224.494 76.1358 225.702 78.6345 228.118 80.3224C230.535 82.0102 233.613 82.8542 237.353 82.8542Z" fill="white"/>
<path d="M326.305 18.2686V32.1687H282.466V18.2686H326.305ZM293.289 0H311.262V71.5852C311.262 74.0012 311.626 75.8545 312.354 77.1452C313.115 78.4028 314.108 79.2633 315.333 79.7267C316.557 80.19 317.914 80.4216 319.404 80.4216C320.529 80.4216 321.555 80.3389 322.482 80.1734C323.442 80.008 324.17 79.859 324.666 79.7267L327.695 93.7756C326.735 94.1066 325.361 94.4706 323.574 94.8678C321.82 95.2649 319.668 95.4966 317.12 95.5628C312.619 95.6951 308.564 95.0167 304.956 93.5274C301.349 92.005 298.486 89.6553 296.367 86.4781C294.282 83.3009 293.256 79.3295 293.289 74.5638V0Z" fill="white"/>
<path d="M422.699 94.5203V18.2686H440.125V30.9772H440.92C442.31 26.5755 444.693 23.1833 448.069 20.8004C451.478 18.3845 455.367 17.1765 459.736 17.1765C460.729 17.1765 461.838 17.2261 463.062 17.3254C464.32 17.3916 465.363 17.5074 466.19 17.6729V34.204C465.429 33.9393 464.221 33.7076 462.566 33.509C460.944 33.2774 459.372 33.1615 457.85 33.1615C454.573 33.1615 451.627 33.8731 449.012 35.2962C446.431 36.6862 444.395 38.6222 442.906 41.1044C441.416 43.5865 440.672 46.4493 440.672 49.6926V94.5203H422.699Z" fill="white"/>
<path d="M535.606 38.4237L519.222 40.2108C518.759 38.5561 517.948 37.0006 516.79 35.5444C515.664 34.0882 514.142 32.9133 512.222 32.0197C510.302 31.1262 507.953 30.6794 505.172 30.6794C501.432 30.6794 498.288 31.4902 495.739 33.1119C493.224 34.7335 491.983 36.8351 492.016 39.4165C491.983 41.6339 492.794 43.4376 494.448 44.8276C496.136 46.2176 498.917 47.3594 502.789 48.253L515.797 51.033C523.012 52.5885 528.374 55.0541 531.882 58.4298C535.424 61.8055 537.211 66.2238 537.244 71.6845C537.211 76.4833 535.805 80.7195 533.024 84.3931C530.277 88.0336 526.454 90.8798 521.556 92.9317C516.657 94.9836 511.031 96.0096 504.676 96.0096C495.342 96.0096 487.829 94.0569 482.136 90.1517C476.443 86.2133 473.05 80.7361 471.958 73.7198L489.484 72.032C490.278 75.4739 491.966 78.0719 494.548 79.8259C497.129 81.58 500.489 82.457 504.626 82.457C508.896 82.457 512.321 81.58 514.903 79.8259C517.518 78.0719 518.825 75.9041 518.825 73.3227C518.825 71.1384 517.981 69.3347 516.293 67.9116C514.638 66.4885 512.057 65.3964 508.548 64.6352L495.541 61.9048C488.226 60.3824 482.814 57.8175 479.306 54.2102C475.798 50.5697 474.06 45.9694 474.093 40.4094C474.06 35.7099 475.334 31.6391 477.916 28.1972C480.531 24.7222 484.155 22.0415 488.789 20.1551C493.455 18.2355 498.834 17.2758 504.924 17.2758C513.861 17.2758 520.894 19.1787 526.024 22.9847C531.187 26.7907 534.381 31.937 535.606 38.4237Z" fill="white"/>
<path d="M413.793 56.6536C413.793 78.3785 396.182 95.9901 374.457 95.9901C352.732 95.9901 335.12 78.3785 335.12 56.6536C335.12 34.9287 352.732 17.3171 374.457 17.3171C396.182 17.3171 413.793 34.9287 413.793 56.6536Z" fill="white"/>
<path d="M552.738 18.25H629.078V94.5903H552.738V18.25Z" fill="white"/>
<path d="M805.651 18.25H881.991L805.651 94.5903V18.25Z" fill="white"/>
<path d="M677.811 124.703C671.357 124.703 665.813 123.826 661.179 122.072C656.546 120.351 652.822 118.035 650.009 115.122C647.195 112.21 645.242 108.983 644.15 105.442L660.335 101.52C661.063 103.009 662.123 104.482 663.513 105.938C664.903 107.427 666.773 108.652 669.123 109.612C671.506 110.605 674.501 111.101 678.109 111.101C683.206 111.101 687.426 109.86 690.769 107.378C694.112 104.929 695.783 100.891 695.783 95.2649V80.8188H694.89C693.963 82.6722 692.606 84.5751 690.819 86.5277C689.064 88.4804 686.731 90.1186 683.818 91.4424C680.939 92.7662 677.315 93.4281 672.946 93.4281C667.087 93.4281 661.775 92.0547 657.009 89.3078C652.276 86.5278 648.503 82.3908 645.689 76.897C642.909 71.3701 641.519 64.4532 641.519 56.1462C641.519 47.7731 642.909 40.7073 645.689 34.9487C648.503 29.157 652.292 24.7719 657.059 21.7933C661.825 18.7816 667.137 17.2758 672.995 17.2758C677.464 17.2758 681.137 18.037 684.017 19.5593C686.93 21.0486 689.246 22.8523 690.968 24.9704C692.689 27.0554 693.996 29.0246 694.89 30.8779H695.883V18.2686H713.607V95.7613C713.607 102.281 712.051 107.676 708.94 111.945C705.829 116.214 701.576 119.408 696.181 121.526C690.786 123.644 684.662 124.703 677.811 124.703ZM677.96 79.3295C681.766 79.3295 685.01 78.4028 687.691 76.5495C690.372 74.6962 692.407 72.032 693.797 68.557C695.188 65.082 695.883 60.9119 695.883 56.0469C695.883 51.2481 695.188 47.045 693.797 43.4376C692.44 39.8302 690.421 37.0337 687.74 35.048C685.093 33.0291 681.832 32.0197 677.96 32.0197C673.955 32.0197 670.612 33.0622 667.931 35.1473C665.25 37.2323 663.231 40.095 661.874 43.7355C660.517 47.3429 659.839 51.4467 659.839 56.0469C659.839 60.7134 660.517 64.8007 661.874 68.3088C663.264 71.7838 665.3 74.4976 667.981 76.4502C670.695 78.3698 674.021 79.3295 677.96 79.3295Z" fill="white"/>
<path d="M751.174 96.0592C746.341 96.0592 741.989 95.1987 738.116 93.4778C734.277 91.7237 731.232 89.1423 728.981 85.7335C726.764 82.3246 725.655 78.1215 725.655 73.1241C725.655 68.8217 726.449 65.264 728.038 62.4509C729.627 59.6378 731.795 57.3873 734.542 55.6994C737.289 54.0116 740.384 52.7374 743.826 51.8769C747.301 50.9834 750.892 50.338 754.599 49.9409C759.068 49.4775 762.692 49.0638 765.472 48.6998C768.252 48.3026 770.271 47.7069 771.529 46.9126C772.82 46.0852 773.465 44.8111 773.465 43.0901V42.7923C773.465 39.0525 772.357 36.1566 770.139 34.1047C767.921 32.0528 764.727 31.0269 760.557 31.0269C756.155 31.0269 752.663 31.9866 750.081 33.9062C747.533 35.8257 745.812 38.0927 744.918 40.7073L728.137 38.3244C729.461 33.6911 731.646 29.8189 734.691 26.7079C737.736 23.5639 741.459 21.2141 745.861 19.6586C750.263 18.0701 755.129 17.2758 760.458 17.2758C764.132 17.2758 767.789 17.706 771.43 18.5665C775.071 19.427 778.397 20.85 781.409 22.8358C784.421 24.7884 786.837 27.4526 788.657 30.8283C790.511 34.204 791.438 38.4237 791.438 43.4873V94.5203H774.16V84.0456H773.565C772.472 86.1637 770.933 88.1494 768.947 90.0027C766.995 91.823 764.529 93.2958 761.55 94.421C758.604 95.5131 755.146 96.0592 751.174 96.0592ZM755.841 82.8542C759.448 82.8542 762.576 82.1426 765.224 80.7195C767.872 79.2633 769.907 77.3438 771.33 74.9609C772.787 72.5781 773.515 69.9801 773.515 67.167V58.1816C772.952 58.6449 771.992 59.0752 770.635 59.4723C769.311 59.8695 767.822 60.217 766.167 60.5148C764.512 60.8127 762.874 61.0774 761.252 61.3091C759.63 61.5408 758.224 61.7393 757.032 61.9048C754.351 62.2689 751.952 62.8646 749.833 63.692C747.715 64.5193 746.043 65.6777 744.819 67.167C743.594 68.6232 742.982 70.5096 742.982 72.8263C742.982 76.1358 744.19 78.6345 746.606 80.3224C749.022 82.0102 752.1 82.8542 755.841 82.8542Z" fill="white"/>
<path d="M932.467 18.2686V32.1687H888.628V18.2686H932.467ZM899.451 0H917.424V71.5852C917.424 74.0012 917.788 75.8545 918.516 77.1452C919.277 78.4029 920.27 79.2633 921.495 79.7266C922.719 80.19 924.076 80.4217 925.566 80.4217C926.691 80.4217 927.717 80.3389 928.644 80.1734C929.604 80.008 930.332 79.859 930.828 79.7266L933.857 93.7756C932.897 94.1066 931.523 94.4706 929.736 94.8678C927.982 95.2649 925.83 95.4966 923.282 95.5628C918.781 95.6952 914.726 95.0167 911.118 93.5274C907.511 92.005 904.648 89.6552 902.529 86.4781C900.444 83.3009 899.418 79.3295 899.451 74.5638V0Z" fill="white"/>
<path d="M978.461 96.0096C970.816 96.0096 964.213 94.421 958.652 91.2438C953.125 88.0336 948.872 83.4995 945.893 77.6417C942.914 71.7507 941.425 64.8172 941.425 56.8412C941.425 48.9976 942.914 42.1138 945.893 36.1898C948.905 30.2326 953.108 25.5992 958.503 22.2897C963.898 18.9471 970.236 17.2758 977.518 17.2758C982.218 17.2758 986.653 18.037 990.824 19.5593C995.027 21.0486 998.734 23.3653 1001.94 26.5094C1005.19 29.6534 1007.74 33.658 1009.59 38.523C1011.44 43.3549 1012.37 49.1135 1012.37 55.7987V61.3091H949.865V49.1962H995.143C995.11 45.7543 994.365 42.693 992.909 40.0122C991.452 37.2984 989.417 35.1638 986.802 33.6083C984.22 32.0528 981.208 31.2751 977.766 31.2751C974.092 31.2751 970.865 32.1687 968.085 33.9558C965.305 35.7099 963.137 38.0265 961.581 40.9058C960.059 43.752 959.281 46.8795 959.248 50.2884V60.8623C959.248 65.2971 960.059 69.103 961.681 72.2802C963.302 75.4242 965.57 77.8402 968.482 79.5281C971.395 81.1828 974.804 82.0102 978.71 82.0102C981.324 82.0102 983.691 81.6462 985.809 80.9181C987.927 80.1569 989.764 79.0482 991.32 77.592C992.876 76.1358 994.051 74.3321 994.845 72.1809L1011.63 74.0673C1010.57 78.5021 1008.55 82.3743 1005.57 85.6838C1002.62 88.9603 998.85 91.5086 994.249 93.3288C989.649 95.116 984.386 96.0096 978.461 96.0096Z" fill="white"/>
<mask id="mask0_7_87" style="mask-type:alpha" maskUnits="userSpaceOnUse" x="1025" y="18" width="77" height="77">
<path d="M1025.66 18.25H1102V94.5903H1025.66V18.25Z" fill="#C4C4C4"/>
</mask>
<g mask="url(#mask0_7_87)">
<path d="M1102 94.5903C1102 136.752 1067.82 170.931 1025.66 170.931C983.498 170.931 949.32 136.752 949.32 94.5903C949.32 52.4287 983.498 18.25 1025.66 18.25C1067.82 18.25 1102 52.4287 1102 94.5903Z" fill="white"/>
</g>
</svg>
